# xmcd
#
# Track frame offsets: 
#        150
#        11844
#        24830
#        36221
#        48512
#        63005
#        73399
#        85212
#        96526
#        109532
#        120574
#        133091
#        144611
#        154450
#
# Disc length: 2202 seconds
#
# Revision: 0
# Processed by: cddbd v1.5.2PL0 Copyright (c) Steve Scherf et al.
# Submitted via: ExactAudioCopy v0.95b4
#
DISCID=c508980e
DTITLE=Patsy Cline - Revisited
DYEAR=2006
DGENRE=Country
TTITLE0=Walkin' After Midnight
TTITLE1=Life's Railway To Heaven
TTITLE2=Just Out Of Reach
TTITLE3=A Poor Man's Roses
TTITLE4=Then You'll Know
TTITLE5=I Love You Honey
TTITLE6=If I could Only Stay Asleep
TTITLE7=Crazy Dreams
TTITLE8=Just A Closer Walk With Thee
TTITLE9=Stop The World And Let Me Off
TTITLE10=Fingerprints
TTITLE11=I've Loved And Lost Again
TTITLE12=Turn The Cards Slowly
TTITLE13=Stop Look And Listen
EXTD=
EXTT0=
EXTT1=
EXTT2=
EXTT3=
EXTT4=
EXTT5=
EXTT6=
EXTT7=
EXTT8=
EXTT9=
EXTT10=
EXTT11=
EXTT12=
EXTT13=
PLAYORDER=
